<svg xmlns="http://www.w3.org/2000/svg" version="1.1" xmlns:xlink="http://www.w3.org/1999/xlink" xmlns:svgjs="http://svgjs.dev/svgjs" width="1000" height="1000" viewBox="0 0 1000 1000"><rect width="1000" height="1000" fill="#000000"></rect><g transform="matrix(0.7,0,0,0.7,149.57575757575756,371.86325410413826)"><svg viewBox="0 0 396 145" data-background-color="#ffffff" preserveAspectRatio="xMidYMid meet" height="366" width="1000" xmlns="http://www.w3.org/2000/svg" xmlns:xlink="http://www.w3.org/1999/xlink"><g id="tight-bounds" transform="matrix(1,0,0,1,0.2400000000000091,0.020796857532971558)"><svg viewBox="0 0 395.52 144.9583965836641" height="144.9583965836641" width="395.52"><g><svg viewBox="0 0 670.2673405238631 245.65351679999998" height="144.9583965836641" width="395.52"><g transform="matrix(1,0,0,1,272.7697405238632,27.091470204019373)"><svg viewBox="0 0 397.4975999999999 191.47057639196123" height="191.47057639196123" width="397.4975999999999"><g><svg viewBox="0 0 397.4975999999999 191.47057639196123" height="191.47057639196123" width="397.4975999999999"><g><rect width="397.4975999999999" height="10.358397462515766" x="0" y="127.06456420046466" fill="#ffffff" opacity="1" stroke-width="0" stroke="transparent" fill-opacity="1" class="rect-o-0" data-fill-palette-color="primary" rx="1%" id="o-0" data-palette-color="#ed1703"></rect></g><g transform="matrix(1,0,0,1,0.9887999999999693,0)"><svg viewBox="0 0 395.52 114.86226352472619" height="114.86226352472619" width="395.52"><g transform="matrix(1,0,0,1,0,0)"><svg width="395.52" viewBox="1.0499999523162842 -43.349998474121094 150.63999938964844 43.75" height="114.86226352472619" data-palette-color="#ed1703"><path d="M12.1 0.4Q6.25 0.4 3.65-2.5 1.05-5.4 1.05-11.85L1.05-11.85 1.05-16.05 9.5-16.05 9.5-10.7Q9.5-7.5 11.55-7.5L11.55-7.5Q12.7-7.5 13.15-8.18 13.6-8.85 13.6-10.45L13.6-10.45Q13.6-12.55 13.1-13.93 12.6-15.3 11.83-16.23 11.05-17.15 9.05-19.1L9.05-19.1 5.35-22.8Q1.05-27 1.05-32.1L1.05-32.1Q1.05-37.6 3.58-40.48 6.1-43.35 10.95-43.35L10.95-43.35Q16.75-43.35 19.3-40.28 21.85-37.2 21.85-30.65L21.85-30.65 13.1-30.65 13.05-33.6Q13.05-34.45 12.58-34.95 12.1-35.45 11.25-35.45L11.25-35.45Q10.25-35.45 9.75-34.9 9.25-34.35 9.25-33.4L9.25-33.4Q9.25-31.3 11.65-29.05L11.65-29.05 16.65-24.25Q18.4-22.55 19.55-21.03 20.7-19.5 21.4-17.43 22.1-15.35 22.1-12.5L22.1-12.5Q22.1-6.15 19.78-2.88 17.45 0.4 12.1 0.4L12.1 0.4ZM32.15 0L23.8 0 27.95-42.95 42.5-42.95 46.6 0 38.45 0 37.85-6.95 32.65-6.95 32.15 0ZM34.9-35.65L33.3-13.8 37.2-13.8 35.3-35.65 34.9-35.65ZM66.65 0L49.2 0 49.2-42.95 57.8-42.95 57.8-7.3 66.65-7.3 66.65 0ZM76.79 0L69.04 0 69.04-42.95 82.14-42.95 85.74-16.75 89.34-42.95 102.54-42.95 102.54 0 94.69 0 94.69-30.95 89.74 0 82.04 0 76.79-30.95 76.79 0ZM113.54 0L105.19 0 109.34-42.95 123.89-42.95 127.99 0 119.84 0 119.24-6.95 114.04-6.95 113.54 0ZM116.29-35.65L114.69-13.8 118.59-13.8 116.69-35.65 116.29-35.65ZM138.99 0L130.59 0 130.59-42.95 139.44-42.95 143.39-22.4 143.39-42.95 151.69-42.95 151.69 0 143.29 0 138.99-21.5 138.99 0Z" opacity="1" transform="matrix(1,0,0,1,0,0)" fill="#ffffff" class="undefined-text-0" data-fill-palette-color="primary" id="text-0"></path></svg></g></svg></g><g transform="matrix(1,0,0,1,0,149.62526233871887)"><svg viewBox="0 0 232.20979200000002 41.84531405324233" height="41.84531405324233" width="232.20979200000002"><g transform="matrix(1,0,0,1,0,0)"><svg width="232.20979200000002" viewBox="0.5 -38.900001525878906 219.74000549316406 39.60000228881836" height="41.84531405324233" data-palette-color="#ff908b"><path d="M20.7 0L9.2 0 2.6-19.6 0.5-19.6 0.5-27.8 15.95-27.8 15.95-19.6 13.85-19.6 15.65-11.8 16.15-11.8 19.8-27.8 29-27.8 32.65-11.8 33.15-11.8 34.9-19.6 32.8-19.6 32.8-27.8 47.3-27.8 47.3-19.6 45.2-19.6 38.85 0 26.7 0 23.95-13.9 23.45-13.9 20.7 0ZM63.6 0.7Q56.5 0.7 52.5-3.03 48.5-6.75 48.5-13.9L48.5-13.9Q48.5-21.05 52.5-24.78 56.5-28.5 63.6-28.5L63.6-28.5Q70.65-28.5 73.77-24.83 76.9-21.15 76.9-15.7L76.9-15.7 76.9-12.1 60.7-12.1 60.7-11.8Q60.7-9.95 61.8-9.08 62.9-8.2 65.45-8.2L65.45-8.2Q68.5-8.2 71.25-8.65 74-9.1 76.05-9.8L76.05-9.8 76.05-1.8Q74.3-0.85 70.92-0.08 67.55 0.7 63.6 0.7L63.6 0.7ZM60.7-17.6L66.5-17.6 66.5-18.2Q66.5-19.9 65.77-20.65 65.05-21.4 63.6-21.4L63.6-21.4Q62.15-21.4 61.42-20.63 60.7-19.85 60.7-18.2L60.7-18.2 60.7-17.6ZM99.84 0.7Q97.3 0.7 95.32-0.55 93.34-1.8 92.09-3.4L92.09-3.4 92.09 0 78.4 0 78.4-8.2 80.59-8.2 80.59-30.7 78.4-30.7 78.4-38.9 92.09-38.9 92.09-24.4Q93.34-26 95.32-27.25 97.3-28.5 99.84-28.5L99.84-28.5Q104.95-28.5 107.52-24.7 110.09-20.9 110.09-13.9L110.09-13.9Q110.09-6.9 107.52-3.1 104.95 0.7 99.84 0.7L99.84 0.7ZM95-8.2Q96.45-8.2 97.17-8.97 97.9-9.75 97.9-11.4L97.9-11.4 97.9-16.4Q97.9-18.05 97.17-18.82 96.45-19.6 95-19.6L95-19.6Q93.55-19.6 92.82-18.82 92.09-18.05 92.09-16.4L92.09-16.4 92.09-11.4Q92.09-9.75 92.82-8.97 93.55-8.2 95-8.2L95-8.2ZM136.34 0.7Q131.24 0.7 128.66-3.1 126.09-6.9 126.09-13.9L126.09-13.9Q126.09-20.9 128.66-24.7 131.24-28.5 136.34-28.5L136.34-28.5Q138.89-28.5 140.87-27.25 142.84-26 144.09-24.4L144.09-24.4 144.09-30.7 141.14-30.7 141.14-38.9 155.59-38.9 155.59-8.2 157.79-8.2 157.79 0 144.09 0 144.09-3.4Q142.84-1.8 140.87-0.55 138.89 0.7 136.34 0.7L136.34 0.7ZM141.19-8.2Q142.64-8.2 143.37-8.97 144.09-9.75 144.09-11.4L144.09-11.4 144.09-16.4Q144.09-18.05 143.37-18.82 142.64-19.6 141.19-19.6L141.19-19.6Q139.74-19.6 139.02-18.82 138.29-18.05 138.29-16.4L138.29-16.4 138.29-11.4Q138.29-9.75 139.02-8.97 139.74-8.2 141.19-8.2L141.19-8.2ZM174.29 0.7Q167.19 0.7 163.19-3.03 159.19-6.75 159.19-13.9L159.19-13.9Q159.19-21.05 163.19-24.78 167.19-28.5 174.29-28.5L174.29-28.5Q181.34-28.5 184.46-24.83 187.59-21.15 187.59-15.7L187.59-15.7 187.59-12.1 171.39-12.1 171.39-11.8Q171.39-9.95 172.49-9.08 173.59-8.2 176.14-8.2L176.14-8.2Q179.19-8.2 181.94-8.65 184.69-9.1 186.74-9.8L186.74-9.8 186.74-1.8Q184.99-0.85 181.61-0.08 178.24 0.7 174.29 0.7L174.29 0.7ZM171.39-17.6L177.19-17.6 177.19-18.2Q177.19-19.9 176.46-20.65 175.74-21.4 174.29-21.4L174.29-21.4Q172.84-21.4 172.11-20.63 171.39-19.85 171.39-18.2L171.39-18.2 171.39-17.6ZM211.99 0L197.09 0 190.78-19.6 188.69-19.6 188.69-27.8 204.13-27.8 204.13-19.6 202.03-19.6 204.69-9.7 205.19-9.7 207.84-19.6 205.74-19.6 205.74-27.8 220.24-27.8 220.24-19.6 218.13-19.6 211.99 0Z" opacity="1" transform="matrix(1,0,0,1,0,0)" fill="#ffffff" class="undefined-text-1" data-fill-palette-color="secondary" id="text-1"></path></svg></g></svg></g></svg></g></svg></g><g><svg viewBox="0 0 245.65351679999998 245.65351679999998" height="245.65351679999998" width="245.65351679999998"><g><svg xmlns="http://www.w3.org/2000/svg" xmlns:xlink="http://www.w3.org/1999/xlink" version="1.1" x="0" y="0" viewBox="22.48999786376953 23.4949951171875 54.720001220703125 54.720001220703125" style="enable-background:new 0 0 100 100;" xml:space="preserve" height="245.65351679999998" width="245.65351679999998" class="icon-icon-0" data-fill-palette-color="accent" id="icon-0"><g fill="#ff908b" data-fill-palette-color="accent"><path d="M49.85 78.215c-15.087 0-27.36-12.274-27.36-27.36s12.273-27.36 27.36-27.36 27.36 12.274 27.36 27.36S64.937 78.215 49.85 78.215zM49.85 25.494c-13.983 0-25.36 11.376-25.36 25.36s11.377 25.36 25.36 25.36 25.36-11.376 25.36-25.36S63.834 25.494 49.85 25.494z" fill="#ffffff" data-fill-palette-color="accent"></path><g fill="#ff908b" data-fill-palette-color="accent"><path d="M49.494 66.314c-6.172 0-11.928-0.256-16.207-0.722-6.862-0.747-7.788-1.76-7.788-2.654 0-0.276 0.224-0.5 0.5-0.5 0.274 0 0.498 0.222 0.5 0.496 0.274 0.96 7.765 2.38 22.995 2.38 15.244 0 22.734-1.422 22.997-2.382 0-0.276 0.224-0.497 0.499-0.497 0.276 0 0.5 0.227 0.5 0.503C73.49 66.071 55.124 66.314 49.494 66.314z" fill="#ffffff" data-fill-palette-color="accent"></path><path d="M75.974 51.355H23.016c-0.276 0-0.5-0.224-0.5-0.5s0.224-0.5 0.5-0.5h52.958c0.276 0 0.5 0.224 0.5 0.5S76.25 51.355 75.974 51.355z" fill="#ffffff" data-fill-palette-color="accent"></path><path d="M25.995 39.291c-0.276 0-0.496-0.244-0.496-0.52 0-2.788 16.781-3.089 23.995-3.089 7.215 0 23.996 0.301 23.996 3.089 0 0.276-0.224 0.5-0.5 0.5s-0.5-0.224-0.5-0.5c-0.445-0.844-7.881-2.089-22.996-2.089-15.114 0-22.55 1.246-23.003 2.13C26.491 39.088 26.271 39.291 25.995 39.291z" fill="#ffffff" data-fill-palette-color="accent"></path></g><g fill="#ff908b" data-fill-palette-color="accent"><path d="M37.411 74.85c-4.002 0-4.204-19.989-4.204-23.996 0-6.178 0.33-11.939 0.931-16.223 0.977-6.967 2.336-7.773 3.273-7.773 0.276 0 0.5 0.224 0.5 0.5s-0.224 0.5-0.5 0.5c-0.135 0-1.342 0.194-2.283 6.912-0.594 4.239-0.921 9.951-0.921 16.084 0 14.204 1.663 22.996 3.204 22.996 0.276 0 0.5 0.224 0.5 0.5S37.687 74.85 37.411 74.85z" fill="#ffffff" data-fill-palette-color="accent"></path><path d="M49.494 77.834c-0.276 0-0.5-0.224-0.5-0.5V24.376c0-0.276 0.224-0.5 0.5-0.5s0.5 0.224 0.5 0.5v52.958C49.994 77.61 49.77 77.834 49.494 77.834z" fill="#ffffff" data-fill-palette-color="accent"></path><path d="M61.578 74.85c-0.276 0-0.5-0.224-0.5-0.5s0.224-0.5 0.5-0.5c0.657 0 1.695-1.811 2.454-6.916 0.631-4.238 0.978-9.948 0.978-16.08 0-14.204-1.781-22.996-3.432-22.996-0.276 0-0.5-0.224-0.5-0.5s0.224-0.5 0.5-0.5c4.218 0 4.432 19.989 4.432 23.996 0 6.179-0.351 11.942-0.988 16.227C63.985 74.045 62.56 74.85 61.578 74.85z" fill="#ffffff" data-fill-palette-color="accent"></path></g></g></svg></g></svg></g></svg></g><defs></defs></svg><rect width="395.52" height="144.9583965836641" fill="none" stroke="none" visibility="hidden"></rect></g></svg></g></svg>